<svg xmlns="http://www.w3.org/2000/svg" xmlns:svgjs="http://svgjs.com/svgjs" xmlns:xlink="http://www.w3.org/1999/xlink" width="288" height="288"><svg xmlns="http://www.w3.org/2000/svg" width="288" height="288" viewBox="0 0 16 16"><path d="M6 0v2H3v7h2v1.424l-1.479 4.805-.146.478.955.293.149-.477L5.87 11h4.258l1.392 4.523.149.477.955-.293-.146-.478L11 10.424V9h2V2h-3V0H6zm1 1h2v1H7V1zM4 3h8v3.293l-1.5-1.5-1.5 1.5-2-2-3 3V3zm5 .5c-.546 0-1 .454-1 1s.454 1 1 1 1-.454 1-1-.454-1-1-1zM7 5.707l2 2v.002L9.293 8H4.707L7 5.707zm3.5.5 1.146 1.147.354.355V8h-1.293l-.353-.354L9.707 7l.793-.793zM6 9h4v1H6V9z" color="#000" font-family="sans-serif" font-weight="400" overflow="visible" style="line-height:normal;text-indent:0;text-align:start;text-decoration-line:none;text-decoration-style:solid;text-decoration-color:#000;text-transform:none;block-progression:tb;isolation:auto;mix-blend-mode:normal" fill="#fff" class="color000 svgShape"/></svg></svg>