<svg xmlns="http://www.w3.org/2000/svg" xmlns:svgjs="http://svgjs.com/svgjs" xmlns:xlink="http://www.w3.org/1999/xlink" width="288" height="288"><svg xmlns="http://www.w3.org/2000/svg" width="288" height="288" viewBox="0 0 100 100"><path fill="#fff" d="M33.2 64c1.7 1.1 3.2 2.5 4.3 4.1l5.4-5.5-4.2-4.2-5.5 5.6zm55-50.8C87 12 85.1 12 84 13.2L41.5 55.6l4.2 4.2 42.4-42.4c1.3-1.2 1.3-3.1.1-4.2zm-63 52.4H25c-2.8 0-5.4 1.1-7.4 3-2 2-3.1 4.7-3 7.5.1 4.3-1.3 8.3-3.8 11.5l14.7-.5h.1c2.9.1 5.6-1 7.6-3s3.1-4.7 3-7.5c0-6-5-10.9-11-11z" class="color000 svgShape"/></svg></svg>