<svg xmlns="http://www.w3.org/2000/svg" xmlns:svgjs="http://svgjs.com/svgjs" xmlns:xlink="http://www.w3.org/1999/xlink" width="288" height="288"><svg xmlns="http://www.w3.org/2000/svg" width="288" height="288" data-name="Layer 1" viewBox="0 0 128 128"><path fill="#fff" d="M46.126 83.553a1.998 1.998 0 0 0-2.778.525l-16 23.47a2 2 0 1 0 3.304 2.255l16-23.47a2 2 0 0 0-.526-2.78zM30 80.004a6 6 0 1 0 6 6.001 6.007 6.007 0 0 0-6-6zm0 8.002a2 2 0 1 1 2-2 2.002 2.002 0 0 1-2 2zm12 16.002a6 6 0 1 0 6 6.001 6.007 6.007 0 0 0-6-6zm0 8.001a2 2 0 1 1 2-2 2.002 2.002 0 0 1-2 2z" class="color000 svgShape"/><path fill="#fff" d="M56.28 122.301a2.213 2.213 0 0 1-2.573 1.655L11.542 113.91a2.106 2.106 0 0 1-1.48-2.546l17.344-70.407a13.162 13.162 0 0 1 4.841-6.721l13.315-8.212 2.284-6.108L30.148 30.83a17.11 17.11 0 0 0-6.63 9.184l-17.34 70.393a6.08 6.08 0 0 0 4.439 7.395l42.163 10.046a6.333 6.333 0 0 0 7.381-4.58l2.864-11.348-2.611-6.002-4.134 16.383Z" class="color000 svgShape"/><path fill="#fff" d="M121.494 99.028 93.35 33.343a15.969 15.969 0 0 0-7.999-7.635l-13.58-4.975a33.583 33.583 0 0 1-.698 4.005l12.9 4.726a12.192 12.192 0 0 1 5.7 5.455l28.144 65.684a2.302 2.302 0 0 1-1.048 2.945s-38.59 18.24-38.687 18.286a1.826 1.826 0 0 1-2.45-.989L46.765 54.491a13.338 13.338 0 0 1-.216-8.256l9.286-24.841a2.103 2.103 0 0 1 2.613-1.282l1.238.454a19.943 19.943 0 0 0 .292-4.154l-.154-.056a5.891 5.891 0 0 0-2.03-.362 6.123 6.123 0 0 0-5.705 3.998L42.8 44.834a17.284 17.284 0 0 0 .295 11.255s28.857 66.325 28.869 66.352a5.877 5.877 0 0 0 7.827 3.01l38.686-18.286a6.3 6.3 0 0 0 3.016-8.137Z" class="color000 svgShape"/><path fill="#fff" d="M48.544 14.274a2 2 0 0 0 2.642-3.004 3.217 3.217 0 0 1-1.17-2.823 5.238 5.238 0 0 1 2.552-3.813c3.623-2.173 7.654 1.818 9.278 4.231 2.965 4.41 2.405 11.15 1.024 15.58a30.34 30.34 0 0 1-.544 1.567c-.108-.005-.214-.016-.324-.016a6.023 6.023 0 1 0 4.02 1.561c.243-.64.467-1.28.666-1.92 1.724-5.53 2.228-13.427-1.524-19.005-3.282-4.88-9.266-8.663-14.653-5.428a9.225 9.225 0 0 0-4.48 6.88 7.211 7.211 0 0 0 2.513 6.19zm13.458 19.723a2 2 0 1 1 1.998-2 2.003 2.003 0 0 1-1.998 2zm7.528 20.116a1.822 1.822 0 0 1 .04 1.328 1.654 1.654 0 0 1-.923 1.007 1.698 1.698 0 0 1-1.371.032 1.77 1.77 0 0 1-1.003-.903l-2.307-4.853a1.974 1.974 0 0 0-1.184-1.067 2.118 2.118 0 0 0-2.656 1.203 1.942 1.942 0 0 0 .095 1.585l2.307 4.853a5.88 5.88 0 0 0 1.43 1.835 6.134 6.134 0 0 0 1.941 1.134 5.987 5.987 0 0 0 2.224.342 5.786 5.786 0 0 0 2.247-.535 5.573 5.573 0 0 0 1.886-1.398 6.103 6.103 0 0 0 1.163-1.963 6.02 6.02 0 0 0 .353-2.206 5.26 5.26 0 0 0-.511-2.14l-.882-1.854a1.633 1.633 0 0 1-.067-1.316 1.738 1.738 0 0 1 .87-.979 2.01 2.01 0 0 1 1.432-.078 1.633 1.633 0 0 1 1.01.882l2.308 4.853a1.98 1.98 0 0 0 1.149 1.067 2.027 2.027 0 0 0 1.578-.094 2.26 2.26 0 0 0 1.073-1.192 1.829 1.829 0 0 0-.056-1.502l-2.307-4.853a5.22 5.22 0 0 0-1.43-1.834 6.502 6.502 0 0 0-2.003-1.123 6.247 6.247 0 0 0-2.258-.342 5.617 5.617 0 0 0-2.191.51 5.501 5.501 0 0 0-1.9 1.404 5.847 5.847 0 0 0-1.127 1.93 6.005 6.005 0 0 0-.327 2.192 5.827 5.827 0 0 0 .503 2.194zm17.888 10.12a7.216 7.216 0 0 0-1.772-2.376 7.332 7.332 0 0 0-2.433-1.424 7.528 7.528 0 0 0-2.797-.408 7.827 7.827 0 0 0-2.86.666l-9.206 4.23a1.725 1.725 0 0 0-.962 1.106 1.977 1.977 0 0 0 .098 1.485 1.945 1.945 0 0 0 1.137 1.005 1.92 1.92 0 0 0 1.52-.034l3.162-1.454 2.89 6.081-3.244 1.492a1.726 1.726 0 0 0-.981 1.098 1.994 1.994 0 0 0 .117 1.49 1.967 1.967 0 0 0 1.144.987 1.935 1.935 0 0 0 1.488-.07l9.346-4.295a6.668 6.668 0 0 0 2.32-1.73 7.305 7.305 0 0 0 1.38-2.395 7.027 7.027 0 0 0 .36-2.724 7.345 7.345 0 0 0-.707-2.73zm-3.49 4.245a3.14 3.14 0 0 1-.674 1.105 3.447 3.447 0 0 1-1.096.788l-2.357 1.083-2.89-6.08 2.495-1.148a3.164 3.164 0 0 1 1.282-.29 3.25 3.25 0 0 1 1.254.221 3.632 3.632 0 0 1 1.077.669 3.175 3.175 0 0 1 .78 1.036 3.234 3.234 0 0 1 .327 1.327 3.61 3.61 0 0 1-.198 1.289zm7.978 6.582a1.983 1.983 0 0 0-1.576.061l-13.95 6.41a2.26 2.26 0 0 0-1.073 1.19 1.904 1.904 0 0 0 .082 1.557l3.992 8.398a1.927 1.927 0 0 0 1.144 1.02 2.038 2.038 0 0 0 1.597-.087 1.954 1.954 0 0 0 1.065-1.137 1.881 1.881 0 0 0-.062-1.516l-3.124-6.57 12.092-5.557a1.911 1.911 0 0 0 1.051-1.165 1.946 1.946 0 0 0-.062-1.516 2.052 2.052 0 0 0-1.176-1.088zm8.152 25.357a2.028 2.028 0 0 0 2.726.972 2.016 2.016 0 0 0 1.08-1.143 1.893 1.893 0 0 0-.063-1.55l-3.707-7.798a1.883 1.883 0 0 0-1.204-1.04 2.12 2.12 0 0 0-1.55.08l-13.95 6.41a2.041 2.041 0 0 0-1.017 2.693l3.707 7.798a1.969 1.969 0 0 0 1.157 1.047 2.048 2.048 0 0 0 1.597-.086 1.974 1.974 0 0 0 1.052-1.131 1.895 1.895 0 0 0-.062-1.55l-2.852-6L90.3 97.59l1.983 4.171a2.069 2.069 0 0 0 3.8-.182 1.91 1.91 0 0 0-.055-1.537l-1.984-4.172 3.162-1.452z" class="color000 svgShape"/></svg></svg>